<?xml version="1.0" encoding="utf-8"?>
<!-- Generator: Adobe Illustrator 18.0.0, SVG Export Plug-In . SVG Version: 6.00 Build 0)  -->
<!DOCTYPE svg PUBLIC "-//W3C//DTD SVG 1.1//EN" "http://www.w3.org/Graphics/SVG/1.1/DTD/svg11.dtd">
<svg version="1.1" id="图层_1" xmlns="http://www.w3.org/2000/svg" xmlns:xlink="http://www.w3.org/1999/xlink" x="0px" y="0px"
	 viewBox="0 0 661 260" enable-background="new 0 0 661 260" xml:space="preserve">
<g>
	<path fill-rule="evenodd" clip-rule="evenodd" fill="#E60012" d="M143.986,160.475h-3.27c0-11.928,0-23.857,0-35.785
		c-0.031-2.485-0.47-4.524-3.6-4.649c-2.219-0.089-3.969,1.505-4,4.649c-0.248,10.677-0.52,21.355-0.745,32.034
		c-0.136,6.447,2.955,11.664,9.981,11.664c7.025,0,10.116-5.216,9.98-11.664c-0.225-10.679-0.496-21.356-0.745-32.034
		c-0.03-3.144-1.781-4.738-4-4.649c-3.13,0.125-3.569,2.164-3.6,4.649C143.986,136.617,143.986,148.547,143.986,160.475z"/>
	<path fill-rule="evenodd" clip-rule="evenodd" fill="#E60012" d="M77.677,103.56c-0.287,0.198-1.022-0.302-1.623,0
		c-0.599,0.299-0.841,0.66-1.021,1.021c-0.181,0.361,0,1.442,1.201,2.224c1.201,0.779,5.353,1.589,6.168,1.464
		c0.814-0.127,1.441-1.817,0.752-1.942c-0.689-0.126-2.443-0.627-2.944-1.439c-0.501-0.816-1.315-2.32-1.252-5.263
		c0.063-2.943,1.112-4.565,1.517-4.879c0.404-0.313,0.996,0.242,1.128,0.425c0.132,0.181,1.002,2.707,1.119,2.824
		c0.119,0.119,0.096,0.792-0.445,0.501c-0.54-0.29-1.126-0.501-1.629-0.124c-0.501,0.375-0.939,0.813-0.375,1.439
		c0.564,0.626,1.252,0.565,1.629,0.439c0.375-0.125,1.064-0.313,0.876,0.063c-0.188,0.375-0.125,1.941-0.125,1.941
		c0,0-0.565,0.689,0,1.191c0.563,0.499,1.566,0.5,1.566,0.062c0-0.438,0-1.755,0.125-2.505c0.125-0.752,0.377-2.005,0.878-2.256
		c0.501-0.251,0.876-0.062,1.69-0.563c0.814-0.5,1.692-1.816,1.755-2.569c0.062-0.751,0.562-4.759,1.003-5.386
		c0.438-0.627,1.565-1.003,0.499-2.005c-1.064-1.001-5.261-1.44-7.265,0.125c-2.004,1.566-3.633,3.758-4.698,6.765
		c-1.064,3.007-1.252,4.574-0.876,6.14C77.704,102.818,77.96,103.362,77.677,103.56L77.677,103.56L77.677,103.56z M84.071,97.932
		c0,0-0.222,0.112-0.334,0.443c-0.109,0.333-0.165-2.439-0.165-3.438c0-0.999-0.721-0.999-1.443-0.943
		c-0.72,0.054-0.72,0.054-1.109,0.109c0.372-0.927,0.709-1.61,1.384-2.534c0.87-1.19,2.19-2.472,3.72-2.624
		c0.884-0.088,0.389,2.774,0.332,3.55c-0.054,0.777-0.166,3.218-0.222,3.717c-0.054,0.499-0.553,0.389-1.274,0.556
		C84.239,96.932,84.071,97.932,84.071,97.932z"/>
	<path fill-rule="evenodd" clip-rule="evenodd" fill="#E60012" d="M109.363,66.518c-0.605,0.326-0.884,0.744-0.325,1.721
		c0.558,0.976,1.209,0.791,1.72,2.557c0.512,1.767,1.535,5.347,1.767,5.905c0.232,0.557,0.139,1.581,0.139,1.999
		c0,0.419,0.279,1.674,1.209,1.488c0.929-0.187,0.511-1.302,0.418-1.86c-0.093-0.558-1.348-5.161-1.674-5.858
		c-0.325-0.698-0.93-2.418-1.022-3.069c-0.093-0.651-0.093-1.256-0.651-1.86C110.386,66.937,109.967,66.193,109.363,66.518z"/>
	<path fill-rule="evenodd" clip-rule="evenodd" fill="#E60012" d="M113.733,65.589c-0.279,0.093-0.744,0.233-0.79,0.791
		c-0.047,0.558,0.558,1.255,0.93,1.674c0.372,0.418,0.743,0.883,0.883,1.395c0.139,0.511,1.395,3.72,1.813,3.905
		c0.419,0.186,0.837-0.372,0.837-1.209c0-0.837-0.186-1.906-0.558-2.278c-0.372-0.372-0.605-0.883-0.605-1.627
		c0-0.744-0.511-1.534-1.023-2.185C114.71,65.402,114.013,65.496,113.733,65.589z"/>
	<path fill-rule="evenodd" clip-rule="evenodd" fill="#E60012" d="M116.662,58.195c-0.342,0.047-1.023,0.28-1.162,0.652
		c-0.14,0.372,0,0.976,0.557,1.534c0.558,0.558,0.884,1.116,0.977,1.535c0.093,0.418,1.999,4.65,2.464,5.765
		c0.465,1.116,1.209,3.301,1.86,4.696c0.651,1.395,1.636,3.965,2.464,4.417c0.829,0.452,1.207-0.873,0.708-1.518
		c-0.498-0.645-0.476-0.388-1.22-1.644c-0.743-1.256-3.72-8.229-3.905-8.787c-0.186-0.559-0.879-2.645-0.879-3.343
		c0-0.697,0.553-1.632,0.134-2.283C118.477,58.567,117.005,58.15,116.662,58.195z"/>
	<path fill-rule="evenodd" clip-rule="evenodd" fill="#E60012" d="M170.167,75.115c0.12,1.122,0.641,4.57,2.405,4.69
		c1.764,0.12,1.884-1.884,1.483-2.565c-0.4-0.682-2.725-3.246-2.725-3.246C170.348,72.921,170.094,74.427,170.167,75.115z"/>
	<path fill-rule="evenodd" clip-rule="evenodd" fill="#E60012" d="M209.759,97.982c-0.175,0.077-0.525,0.438-0.656,0.7
		c-0.132,0.262-0.394,0.743-0.613,0.787c-0.218,0.043-1.573,0.35-1.88,0.438c-0.305,0.087-1.223,0.218-1.398,0.48
		c-0.175,0.263-0.656,0.744-0.656,0.744c0,0,0,0.524,0.393,0.524c0.393,0,0.393,0.35,0.393,0.35c0,0-0.044,0.743-0.262,0.612
		c-0.219-0.132-0.298-0.044-0.613-0.336c-0.314-0.292-2.828-2.693-2.828-2.693c0-0.001-0.561-0.875-0.695-1.122
		c-0.135-0.247-0.158-0.673-0.584-0.673c-0.426-0.001-0.943,0.269-1.077,0.651c-0.059,0.167-0.098,0.93,0.336,1.432
		c0.559,0.644,1.689,1.07,2.32,1.486c1.122,0.741,1.901,1.464,2.54,2.173c0.638,0.708,2.031,2.244,2.409,3.071
		c0.378,0.826,0.024,1.134-0.26,1.063c-0.283-0.071-0.874-0.425-1.11-0.614c-0.236-0.189-0.449-0.023-0.449-0.023
		s0.067,0.236,0.537,0.956c0.469,0.72,0.814,1.848,1.096,1.879c0.282,0.031,1.848-0.939,1.566-1.973
		c-0.282-1.034-0.877-2.098-1.065-2.349c-0.187-0.251-0.062-0.595,0.407-0.376c0.47,0.219,1.034,0.564,1.848,0.564
		s1.096,0.282,1.347-0.063c0.251-0.345,0.783-0.971,0.845-1.159c0.063-0.188,0.47-0.156,0.909,0.313
		c0.438,0.469,1.19,0.908,1.503,0.438c0.313-0.47-0.125-1.065,0.282-1.221c0.407-0.157,0.532-0.501,0.752-0.219
		c0.219,0.282,0.407,0.595,0.563,0.407c0.157-0.188,0.47-0.438,0.689-0.783c0.22-0.345,0.094-0.971-0.251-0.94
		c-0.344,0.031-0.876,0.188-1.159,0.282c-0.281,0.094-0.689,0.125-0.845,0.376c-0.156,0.251-0.219,0.376-0.439,0.376
		c-0.219,0-0.532,0.125-0.877-0.219c-0.344-0.345-0.407-0.595-0.752-0.626c-0.344-0.032-1.127,0.219-1.159,0.376
		c-0.031,0.157,0.219,0.533-0.407,0.595c-0.626,0.063-2.192-0.188-2.411-0.063c-0.219,0.125,0.031,0.533-0.283,0.626
		c-0.313,0.094-0.814,0.439-1.064,0.282c-0.25-0.157-0.72-0.782-0.72-0.782c0,0-0.438-0.721,0.282-0.721
		c0.721,0,1.816-0.188,2.036-0.219c0.219-0.032,0.564,0.063,0.501-0.251c-0.063-0.313,0.564-0.125,0.313-0.438
		c-0.25-0.314-0.469-0.533,0-0.595c0.47-0.063,2.224,0,3.195-0.157c0.971-0.157,1.033-0.532,1.127-0.877
		c0.094-0.344-0.626-1.002-0.939-0.908c-0.313,0.094-0.657,0.689-1.096,0.877c-0.439,0.187-1.848,0.564-2.004,0.627
		c-0.156,0.062-1.138,0.282-1.347,0.282c-0.209,0-1.211-0.752-0.407-0.845c0.804-0.095,1.764-0.334,2.192-0.658
		c0.428-0.324,0.846-1.409,0.783-1.66C210.554,97.934,209.933,97.907,209.759,97.982z"/>
	<path fill-rule="evenodd" clip-rule="evenodd" fill="#E60012" d="M201.868,102.802c-0.412,0.164-0.7,0.576-0.576,0.947
		c0.123,0.37,0.782,0.452,0.864,0.905c0.138,0.759-1.1,0.905-1.563,0.905c0,0-1.441-1.564-1.605-1.852
		c-0.165-0.288-0.7-1.811-1.194-1.523c-0.493,0.288-0.864,1.111-0.576,1.605c0.288,0.494,0.782,0.782,1.317,1.317
		c0.535,0.535,1.07,1.111,1.07,1.317c0,0.205-0.288,0.699-0.823,0.823c-0.535,0.123-1.975,0.288-2.222-0.041
		c-0.247-0.329-0.494-1.029-0.412-1.522c0.082-0.494,0.123-1.605-0.412-1.235c-0.535,0.37-0.37,0.7-0.7,1.029
		c-0.329,0.329-0.617,1.358-0.247,1.77c0.37,0.411,1.317,0.905,2.469,0.864c1.153-0.041,1.688-0.247,2.058-0.247
		c0.37,0,0.906-0.453,0.946-0.082c0.041,0.37,0.288,1.892,0.905,1.81c0.618-0.082,1.4-0.411,1.276-0.946
		c-0.123-0.535-0.864-1.811-0.864-1.811c0,0-0.123-0.947,0.206-0.823c0.329,0.123,1.028,0.247,1.482,0.288
		c0.452,0.041,1.316-0.247,1.111-0.823c-0.206-0.576-1.276-1.687-1.482-2.017C202.692,103.13,202.28,102.637,201.868,102.802z"/>
	<path fill-rule="evenodd" clip-rule="evenodd" fill="#E60012" d="M172.922,64.984c-0.108,0.022-0.83,1.055-1.609,2.18
		c-0.044-0.004-0.081-0.005-0.108-0.005c-0.36,0-1.861,0.12-2.402-0.24c-0.54-0.361-1.322-0.961-1.682-1.021
		c-0.361-0.06-0.841,0.18-1.021,0.781c-0.18,0.601-0.12,1.201,0.721,2.102c0.841,0.901,1.022,0.781,1.802,0.601
		c0.362-0.084,0.814-0.141,1.273-0.191c-0.311,0.431-0.549,0.741-0.647,0.816c-0.418,0.325-1.72,1.86-2.511,2.418
		c-0.79,0.558-2.935,1.514-2.836,1.581c0.099,0.066-0.493,0.152-0.558-0.511c-0.065-0.664-0.464-0.093-1.115,0.279
		c-0.651,0.372-0.233,1.162-0.326,1.627c-0.093,0.465-0.079,0.804,0.804,0.665c0.884-0.14,1.745-1.083,2.768-1.595
		c1.023-0.511,2.845-1.348,3.635-2.185c0.625-0.662,1.86-2.312,2.534-3.296c0.91-0.089,2.666-0.089,3.046-0.089
		c0.421,0,0.841,0.361,1.502,0.3c0.661-0.06,1.381-0.36,0.961-0.901c-0.421-0.541-0.781-1.201-1.442-1.021
		c-0.661,0.18-1.304,0.111-1.725,0.171c-0.189,0.026-0.698-0.029-1.233-0.1c0.321-0.423,0.645-0.834,0.82-1.11
		c0.326-0.512,0.512-0.651,0.744-0.791c0.232-0.14,0.744-0.604,1.023-1.069c0.279-0.465,0.093-1.72-0.279-2
		c-0.372-0.279-1.07-0.093-1.396,0.512C173.34,63.496,173.154,64.938,172.922,64.984z"/>
	<path fill-rule="evenodd" clip-rule="evenodd" fill="#E60012" d="M142.25,92.191c-0.292,0-0.583,0.005-0.875,0.017
		c-0.22-1.517-1.059-3.349-2.889-3.405c-1.385-0.042-2.243,0.057-3.658,0.048c-1.395-0.009-2.326-0.494-2.938-1.283
		c0.359,1.885,0.903,3.782,2.993,4.11c0.914,0.143,1.901,0.091,2.826,0.096c1.383,0.008,2.113,0.19,2.625,0.498
		c-3.552,0.317-6.768,1.609-7.872,4.803c-0.984,2.849-0.699,9.796-1.337,12.992c-1.497,0-2.994,0-4.49,0
		c-3.893-0.074-5.043,3.194-5.306,7.311c-0.674,11.592-1.44,23.179-2.02,34.775c-0.458,9.146-2.391,13.285-5.282,16.421
		c2.122,0,4.244,0,6.366,0c0.868-0.85,1.577-1.941,3.111-4.187c-0.614,2.046-1.182,3.218-1.781,4.187c1.842,0,3.682,0,5.523,0
		c1.049-2.064,1.326-4.523,1.443-7.042c0.598-12.981,1.149-25.964,1.724-38.945c0.067-2.092,0.762-3.338,2.458-3.361
		c2.805,0,5.61,0,8.415,0c0-5.75,0-11.5,0-17.25c-2.003-0.442-3.511-2.234-3.511-4.368c0-2.464,2.009-4.473,4.473-4.473
		c2.464,0,4.473,2.01,4.473,4.473c0,2.134-1.507,3.926-3.512,4.368c0,5.75,0,11.501,0,17.25c2.805,0,5.61,0,8.415,0
		c1.696,0.023,2.39,1.269,2.458,3.361c0.575,12.981,1.125,25.964,1.724,38.945c0.117,2.518,0.394,4.979,1.443,7.042
		c1.841,0,3.682,0,5.523,0c-0.599-0.969-1.166-2.141-1.781-4.187c1.534,2.245,2.242,3.337,3.112,4.187c2.121,0,4.243,0,6.364,0
		c-2.89-3.137-4.824-7.275-5.281-16.421c-0.581-11.597-1.346-23.183-2.02-34.775c-0.263-4.117-1.413-7.385-5.307-7.311
		c-1.496,0-2.993,0-4.49,0c-0.638-3.196-0.353-10.143-1.337-12.992c-1.104-3.195-4.32-4.486-7.872-4.803
		c0.513-0.309,1.243-0.49,2.626-0.498c0.926-0.006,1.912,0.047,2.827-0.096c2.09-0.328,2.634-2.225,2.993-4.11
		c-0.611,0.788-1.542,1.274-2.937,1.283c-1.415,0.009-2.272-0.09-3.658-0.048c-1.83,0.056-2.669,1.888-2.889,3.405
		C142.833,92.196,142.541,92.191,142.25,92.191z"/>
	<path fill-rule="evenodd" clip-rule="evenodd" fill="#E60012" d="M142.11,47.538c46.653,0,84.702,38.05,84.702,84.702
		c0,46.652-38.05,84.702-84.702,84.702c-46.652,0-84.702-38.05-84.702-84.702C57.408,85.588,95.458,47.539,142.11,47.538
		L142.11,47.538L142.11,47.538z M142.11,50.521c-45.009,0-81.72,36.71-81.72,81.72c0,45.01,36.711,81.72,81.72,81.72
		c45.01,0,81.72-36.71,81.72-81.72C223.83,87.231,187.12,50.521,142.11,50.521z"/>
	<path fill-rule="evenodd" clip-rule="evenodd" fill="#E60012" d="M67.812,129.935l3.925-0.069l0.007,0.403
		c-0.933,0.146-1.704,0.586-2.309,1.323c-0.604,0.734-0.899,1.574-0.883,2.514c0.011,0.606,0.16,1.094,0.45,1.465
		c0.288,0.368,0.653,0.551,1.098,0.543c0.684-0.012,1.394-0.91,2.134-2.692l0.008-0.024c0.045-0.109,0.111-0.272,0.201-0.491
		c0.498-1.23,1.018-2.055,1.565-2.472c0.246-0.184,0.508-0.327,0.787-0.424c0.282-0.098,0.575-0.151,0.887-0.156
		c0.993-0.018,1.818,0.344,2.481,1.085c0.659,0.741,0.999,1.699,1.02,2.873c0.011,0.635-0.105,1.303-0.347,2.001
		c-0.242,0.695-0.36,1.076-0.359,1.137c0.003,0.177,0.058,0.301,0.165,0.371c0.108,0.069,0.304,0.114,0.588,0.13l0.007,0.426
		l-3.462,0.061l-0.006-0.366c0.821-0.165,1.481-0.568,1.984-1.218c0.506-0.647,0.749-1.399,0.734-2.257
		c-0.009-0.538-0.139-0.967-0.391-1.288c-0.252-0.322-0.578-0.48-0.975-0.473c-0.58,0.01-1.143,0.706-1.686,2.086l-0.069,0.174
		c-0.396,0.989-0.702,1.681-0.915,2.077c-0.213,0.393-0.425,0.691-0.639,0.891c-0.32,0.308-0.674,0.539-1.055,0.699
		c-0.384,0.157-0.793,0.242-1.233,0.249c-1.057,0.018-1.924-0.351-2.603-1.107c-0.678-0.757-1.027-1.752-1.048-2.984
		c-0.012-0.696,0.097-1.424,0.328-2.18c0.23-0.76,0.345-1.167,0.344-1.23c-0.004-0.181-0.069-0.327-0.196-0.442
		c-0.126-0.115-0.302-0.18-0.531-0.197L67.812,129.935L67.812,129.935z M71.591,147.082c-0.545,0.096-0.913,0.266-1.104,0.51
		c-0.191,0.243-0.254,0.617-0.193,1.12l-0.389,0.069l-1.062-6.021l0.389-0.069c0.109,0.495,0.296,0.825,0.561,0.988
		c0.263,0.163,0.67,0.196,1.215,0.1l6.764-1.193c0.545-0.096,0.916-0.269,1.106-0.515c0.193-0.247,0.257-0.618,0.19-1.115
		l0.389-0.069l1.062,6.021l-0.397,0.07c-0.115-0.499-0.302-0.829-0.559-0.991c-0.26-0.162-0.664-0.195-1.209-0.099L71.591,147.082
		L71.591,147.082z M76.408,161.685c-0.95-0.24-1.75-0.668-2.401-1.284c-0.651-0.616-1.129-1.393-1.435-2.335
		c-0.227-0.698-0.321-1.383-0.282-2.059c0.04-0.673,0.213-1.322,0.524-1.944c0.325-0.688,0.79-1.279,1.392-1.775
		c0.605-0.495,1.321-0.878,2.153-1.148c1.569-0.51,3.006-0.436,4.304,0.226c1.301,0.66,2.204,1.768,2.709,3.322
		c0.216,0.664,0.321,1.356,0.313,2.071c-0.007,0.715-0.001,1.095,0.013,1.138c0.048,0.148,0.123,0.249,0.226,0.302
		c0.106,0.051,0.275,0.075,0.51,0.063l0.127,0.39l-3.29,1.069l-0.127-0.391c0.771-0.404,1.306-0.917,1.605-1.541
		c0.295-0.625,0.327-1.299,0.092-2.022c-0.285-0.876-0.876-1.42-1.775-1.632c-0.898-0.212-2.074-0.081-3.525,0.391
		c-1.517,0.492-2.592,1.09-3.225,1.791c-0.636,0.7-0.812,1.487-0.529,2.358c0.18,0.551,0.507,1.03,0.988,1.437
		c0.481,0.409,1.091,0.726,1.828,0.954L76.408,161.685L76.408,161.685z M80.315,169.032l2.752-1.719l1.742,2.788l-2.752,1.719
		c-0.47,0.293-0.857,0.414-1.161,0.363c-0.303-0.051-0.601-0.287-0.894-0.706l-0.335,0.209l3.24,5.185l0.335-0.209
		c-0.249-0.429-0.331-0.796-0.244-1.1c0.088-0.305,0.366-0.604,0.836-0.897l5.825-3.64c0.469-0.293,0.86-0.413,1.167-0.357
		c0.309,0.054,0.602,0.289,0.881,0.706l0.341-0.214l-3.24-5.185l-0.334,0.209c0.245,0.443,0.328,0.814,0.242,1.112
		c-0.086,0.297-0.364,0.593-0.833,0.886l-2.402,1.501l-1.742-2.788l2.402-1.5c0.469-0.293,0.857-0.413,1.161-0.361
		c0.305,0.053,0.602,0.289,0.893,0.704l0.334-0.209l-3.24-5.185l-0.334,0.209c0.247,0.436,0.328,0.805,0.241,1.105
		c-0.085,0.3-0.363,0.599-0.833,0.892l-5.825,3.64c-0.47,0.293-0.86,0.412-1.171,0.36c-0.311-0.053-0.605-0.287-0.883-0.704
		l-0.335,0.209l3.24,5.184l0.335-0.21c-0.249-0.447-0.331-0.818-0.243-1.113C79.568,169.621,79.846,169.326,80.315,169.032
		L80.315,169.032L80.315,169.032z M94.812,183.984l3.582-3.34c0.408-0.381,0.625-0.724,0.652-1.028
		c0.028-0.305-0.12-0.649-0.444-1.035l0.289-0.269l2.37,2.542l-0.289,0.269c-0.357-0.352-0.692-0.525-1.005-0.519
		c-0.311,0.004-0.672,0.196-1.077,0.573l-3.559,3.318c-0.556,0.518-1.032,0.882-1.427,1.088c-0.395,0.206-0.803,0.319-1.221,0.341
		c-0.554,0.02-1.126-0.12-1.715-0.421c-0.591-0.304-1.16-0.751-1.712-1.342c-0.98-1.052-1.472-2.057-1.48-3.017
		c-0.008-0.96,0.47-1.888,1.435-2.787l3.77-3.516c0.405-0.377,0.621-0.724,0.647-1.034c0.028-0.312-0.121-0.658-0.447-1.039
		l0.289-0.27l4.169,4.472l-0.288,0.269c-0.365-0.352-0.701-0.526-1.01-0.52c-0.31,0.006-0.667,0.198-1.072,0.576l-4.303,4.012
		c-0.599,0.558-0.923,1.085-0.974,1.582c-0.049,0.495,0.167,1.003,0.651,1.522c0.575,0.616,1.21,0.89,1.904,0.818
		C93.243,185.157,93.998,184.743,94.812,183.984L94.812,183.984L94.812,183.984z M98.228,189.579l1.486-0.963l2.28,1.656
		l-0.566,1.97c-0.021,0.092-0.051,0.179-0.089,0.263c-0.036,0.081-0.08,0.155-0.128,0.221c-0.137,0.188-0.291,0.27-0.461,0.247
		c-0.172-0.026-0.484-0.204-0.94-0.536l-0.232,0.32l4.601,3.343l0.232-0.319c-0.193-0.14-0.311-0.302-0.357-0.486
		c-0.044-0.183-0.021-0.458,0.072-0.825l2.559-9.873l-0.961-0.697l-8.489,5.37c-0.331,0.208-0.621,0.324-0.876,0.35
		c-0.255,0.021-0.486-0.043-0.701-0.198l-0.232,0.319l2.636,1.915l0.232-0.319l-0.12-0.087c-0.3-0.218-0.483-0.426-0.547-0.626
		c-0.062-0.199-0.013-0.41,0.149-0.632c0.048-0.067,0.11-0.133,0.186-0.202C98.036,189.721,98.123,189.651,98.228,189.579
		L98.228,189.579L98.228,189.579z M100.314,188.226l2.744-1.766l-0.877,3.122L100.314,188.226L100.314,188.226z M112.259,190.153
		c0.234-0.501,0.304-0.903,0.213-1.201c-0.092-0.3-0.36-0.565-0.804-0.795l0.167-0.359l4.058,1.893l1.996,7.841l1.82-3.904
		c0.234-0.501,0.306-0.9,0.217-1.192c-0.089-0.291-0.36-0.557-0.812-0.797l0.17-0.365l3.161,1.474l-0.166,0.357
		c-0.463-0.192-0.838-0.227-1.127-0.104c-0.287,0.12-0.55,0.434-0.784,0.935l-3.729,7.997l-1.097-0.511l-2.744-10.7l-2.782,5.966
		c-0.234,0.502-0.306,0.901-0.216,1.197c0.09,0.296,0.36,0.562,0.808,0.8l-0.166,0.357l-3.162-1.474l0.167-0.357
		c0.461,0.197,0.835,0.234,1.124,0.109c0.289-0.126,0.552-0.438,0.786-0.94L112.259,190.153L112.259,190.153z M138.967,202.323
		l0.427-4.88c0.049-0.557-0.02-0.956-0.203-1.201c-0.183-0.245-0.523-0.402-1.023-0.472l0.035-0.394l3.462,0.303l-0.035,0.394
		c-0.501-0.023-0.865,0.073-1.094,0.287c-0.229,0.211-0.368,0.596-0.417,1.147l-0.424,4.847c-0.066,0.757-0.176,1.346-0.333,1.763
		c-0.156,0.417-0.384,0.775-0.678,1.071c-0.398,0.384-0.917,0.664-1.557,0.834c-0.643,0.169-1.365,0.218-2.17,0.148
		c-1.433-0.126-2.47-0.543-3.118-1.252c-0.648-0.708-0.914-1.717-0.798-3.032l0.449-5.135c0.048-0.552-0.023-0.954-0.212-1.202
		c-0.188-0.25-0.531-0.408-1.027-0.472l0.034-0.394l6.09,0.532l-0.035,0.393c-0.506-0.017-0.873,0.078-1.1,0.29
		c-0.226,0.211-0.363,0.593-0.412,1.144l-0.512,5.861c-0.071,0.815,0.04,1.424,0.335,1.826c0.295,0.401,0.796,0.633,1.503,0.695
		c0.839,0.073,1.494-0.148,1.962-0.666C138.586,204.244,138.869,203.432,138.967,202.323L138.967,202.323L138.967,202.323z
		 M144.844,197.543c-0.077-0.548-0.236-0.923-0.476-1.122c-0.24-0.202-0.609-0.278-1.108-0.23l-0.055-0.39l4.433-0.624l5.946,5.488
		l-0.6-4.265c-0.077-0.548-0.234-0.922-0.468-1.119c-0.233-0.195-0.605-0.271-1.115-0.225l-0.056-0.399l3.455-0.486l0.055,0.391
		c-0.493,0.091-0.827,0.266-1.002,0.526c-0.175,0.257-0.225,0.663-0.148,1.212l1.228,8.737l-1.199,0.169l-8.13-7.479l0.917,6.518
		c0.077,0.548,0.233,0.923,0.471,1.122c0.236,0.199,0.608,0.276,1.113,0.231l0.055,0.391l-3.455,0.485l-0.055-0.39
		c0.494-0.086,0.827-0.258,1.002-0.521c0.175-0.263,0.225-0.668,0.147-1.217L144.844,197.543L144.844,197.543z M164.244,200.859
		c0.153,0.532,0.36,0.881,0.622,1.046c0.262,0.164,0.641,0.188,1.135,0.074l0.108,0.38l-5.877,1.685l-0.109-0.38
		c0.481-0.159,0.789-0.38,0.924-0.661c0.135-0.278,0.126-0.686-0.027-1.218l-1.893-6.603c-0.152-0.532-0.363-0.882-0.628-1.046
		c-0.266-0.167-0.641-0.191-1.129-0.073l-0.108-0.379l5.877-1.686l0.111,0.387c-0.484,0.167-0.793,0.388-0.927,0.66
		c-0.133,0.275-0.125,0.68,0.028,1.213L164.244,200.859L164.244,200.859z M174.185,199.209l0.6-0.321l-0.961-10.204
		c-0.036-0.389,0-0.733,0.109-1.025c0.111-0.293,0.283-0.507,0.516-0.643l-0.185-0.349l-2.837,1.509l0.185,0.348
		c0.359-0.166,0.647-0.245,0.867-0.233c0.22,0.013,0.383,0.117,0.488,0.314c0.038,0.073,0.071,0.158,0.098,0.254
		c0.028,0.096,0.049,0.211,0.061,0.346l0.543,5.45l-4.402-3.705c-0.096-0.09-0.166-0.16-0.208-0.21
		c-0.045-0.051-0.081-0.101-0.107-0.15c-0.095-0.178-0.1-0.34-0.012-0.486c0.085-0.144,0.277-0.296,0.574-0.455l0.082-0.043
		l-0.189-0.357l-4.94,2.627l0.185,0.349c0.285-0.134,0.549-0.175,0.786-0.124c0.239,0.053,0.553,0.238,0.939,0.56L174.185,199.209
		L174.185,199.209z M182.366,194.737l-0.248-0.307c0.379-0.327,0.576-0.647,0.59-0.962c0.014-0.315-0.152-0.689-0.501-1.119
		l-4.322-5.338c-0.348-0.431-0.679-0.67-0.987-0.718c-0.309-0.05-0.664,0.075-1.067,0.374l-0.248-0.307l7.345-5.948l1.852,2.288
		l-0.296,0.24c-0.618-0.573-1.189-0.861-1.718-0.862c-0.527-0.003-1.153,0.29-1.88,0.879l-1.19,0.963l2.646,3.267l0.138-0.112
		c0.459-0.372,0.694-0.78,0.706-1.229c0.009-0.448-0.206-1.007-0.648-1.675l0.313-0.253l3.259,4.024l-0.313,0.254
		c-0.571-0.584-1.081-0.914-1.524-0.994c-0.444-0.081-0.904,0.074-1.378,0.457l-0.103,0.083l2.101,2.594
		c0.328,0.405,0.589,0.603,0.789,0.592c0.197-0.01,0.546-0.217,1.045-0.621c0.78-0.632,1.246-1.278,1.398-1.94
		c0.152-0.662,0.019-1.45-0.399-2.363l0.343-0.278l1.667,3.043L182.366,194.737L182.366,194.737z M192.395,178.576l0.134-0.16
		c0.429-0.512,0.605-1.01,0.527-1.498c-0.076-0.486-0.415-0.981-1.013-1.483c-0.623-0.523-1.181-0.769-1.678-0.741
		c-0.498,0.029-0.993,0.339-1.489,0.93L192.395,178.576L192.395,178.576z M195.184,180.916l-2.289-1.921l0.225-0.268l5.522,1.109
		l2.564-3.056l-0.303-0.254c-0.202,0.2-0.426,0.331-0.669,0.386c-0.241,0.056-0.594,0.041-1.053-0.047l-4.235-0.76
		c0.288-0.643,0.372-1.26,0.259-1.853c-0.118-0.594-0.419-1.096-0.906-1.504c-0.722-0.607-1.516-0.778-2.381-0.512
		c-0.868,0.264-1.769,0.954-2.704,2.068l-3.831,4.565l0.303,0.254c0.338-0.37,0.663-0.56,0.976-0.57
		c0.313-0.011,0.681,0.16,1.107,0.518l5.26,4.414c0.424,0.356,0.658,0.691,0.704,1.003c0.046,0.311-0.087,0.664-0.397,1.057
		l0.302,0.253l3.996-4.762l-0.307-0.248c-0.361,0.413-0.699,0.631-1.013,0.652C196,181.459,195.624,181.286,195.184,180.916
		L195.184,180.916L195.184,180.916z M203.934,173.653l-3.434-1.903l0.195-0.352c0.881,0.339,1.768,0.344,2.661,0.009
		c0.89-0.334,1.566-0.913,2.021-1.735c0.295-0.531,0.409-1.028,0.343-1.494c-0.064-0.462-0.29-0.803-0.679-1.019
		c-0.598-0.331-1.662,0.091-3.194,1.264l-0.018,0.017c-0.095,0.072-0.233,0.18-0.419,0.326c-1.046,0.816-1.91,1.27-2.592,1.359
		c-0.305,0.037-0.604,0.029-0.894-0.026c-0.293-0.056-0.573-0.157-0.847-0.309c-0.869-0.482-1.402-1.207-1.605-2.18
		c-0.201-0.971-0.016-1.971,0.553-2.998c0.308-0.557,0.742-1.076,1.3-1.56c0.558-0.482,0.85-0.752,0.88-0.805
		c0.086-0.156,0.1-0.29,0.042-0.404c-0.058-0.115-0.207-0.251-0.444-0.406l0.207-0.373l3.029,1.679l-0.177,0.32
		c-0.793-0.268-1.567-0.248-2.327,0.064c-0.761,0.308-1.349,0.837-1.765,1.587c-0.26,0.47-0.363,0.907-0.306,1.312
		c0.058,0.404,0.26,0.704,0.608,0.898c0.508,0.281,1.343-0.04,2.502-0.964l0.147-0.116c0.838-0.659,1.448-1.104,1.83-1.341
		c0.381-0.235,0.714-0.386,0.999-0.452c0.431-0.106,0.854-0.13,1.264-0.077c0.411,0.055,0.808,0.187,1.193,0.4
		c0.924,0.512,1.491,1.266,1.7,2.26c0.209,0.994,0.014,2.031-0.584,3.108c-0.337,0.609-0.796,1.185-1.374,1.725
		c-0.579,0.542-0.882,0.837-0.913,0.893c-0.087,0.157-0.103,0.318-0.051,0.481c0.053,0.162,0.172,0.307,0.361,0.436L203.934,173.653
		L203.934,173.653z M209.591,157.081l-6.413-2.462c-0.517-0.199-0.846-0.435-0.985-0.708c-0.137-0.271-0.128-0.65,0.031-1.137
		l-0.376-0.144l-2.191,5.708l0.368,0.141c0.199-0.46,0.445-0.746,0.738-0.857c0.29-0.114,0.697-0.07,1.214,0.128l6.413,2.461
		c0.517,0.198,0.848,0.436,0.989,0.712c0.144,0.276,0.134,0.656-0.027,1.136l0.369,0.141l2.19-5.708l-0.368-0.141
		c-0.206,0.463-0.453,0.751-0.742,0.862C210.511,157.323,210.108,157.28,209.591,157.081L209.591,157.081L209.591,157.081z
		 M205.037,140.564l2.716,0.627l-0.086,0.371c-0.746-0.099-1.317-0.016-1.71,0.247c-0.393,0.262-0.67,0.745-0.833,1.453
		l-0.156,0.678l7.924,1.829c0.539,0.125,0.945,0.112,1.215-0.034c0.27-0.147,0.475-0.467,0.615-0.959l0.385,0.088l-1.375,5.958
		l-0.385-0.088c0.096-0.486,0.055-0.86-0.127-1.12c-0.182-0.26-0.543-0.451-1.082-0.576l-7.924-1.829l-0.156,0.678
		c-0.163,0.707-0.125,1.263,0.113,1.666c0.238,0.403,0.716,0.725,1.43,0.964l-0.089,0.384l-2.716-0.626L205.037,140.564
		L205.037,140.564z M210.896,132.199l3.129,0.055c0.553,0.01,0.946-0.087,1.18-0.286c0.234-0.2,0.368-0.555,0.403-1.066l0.394,0.007
		l-0.107,6.112l-0.394-0.007c-0.007-0.501-0.125-0.858-0.357-1.071c-0.232-0.214-0.625-0.327-1.179-0.336l-2.489-0.043l-4.9,2.661
		c-0.418,0.225-0.705,0.444-0.863,0.653c-0.154,0.209-0.235,0.46-0.241,0.748l-0.402-0.007l0.099-5.665l0.402,0.007
		c-0.005,0.291,0.025,0.501,0.095,0.635c0.067,0.134,0.176,0.201,0.333,0.204c0.058,0.001,0.117-0.006,0.184-0.023
		c0.063-0.018,0.133-0.045,0.207-0.087l3.877-1.999l-3.545-1.977c-0.087-0.058-0.179-0.101-0.274-0.129
		c-0.095-0.025-0.19-0.04-0.282-0.042c-0.175-0.004-0.312,0.082-0.405,0.26c-0.093,0.175-0.143,0.435-0.148,0.776l-0.002,0.085
		l-0.403-0.007l0.053-3.057l0.403,0.008l-0.001,0.085c-0.004,0.201,0.059,0.391,0.188,0.563c0.129,0.173,0.328,0.334,0.601,0.484
		L210.896,132.199z"/>
	<path fill-rule="evenodd" clip-rule="evenodd" fill="#E60012" d="M127.586,183.898l-0.007-0.485c0.856,0,1.4-0.048,1.632-0.143
		c0.23-0.095,0.345-0.282,0.345-0.563v-4.778c0-0.236-0.056-0.398-0.17-0.483c-0.114-0.086-0.327-0.125-0.642-0.125
		c-0.074,0-0.239,0.008-0.5,0.026c-0.146,0.007-0.27,0.013-0.366,0.017v-0.486c0.573-0.042,1.13-0.139,1.669-0.288
		c0.538-0.149,1.066-0.352,1.584-0.61l0.528,0v6.728c0,0.27,0.114,0.453,0.341,0.549c0.225,0.093,0.708,0.147,1.45,0.158v0.485
		c-0.477-0.018-0.955-0.031-1.438-0.04c-0.481-0.009-0.964-0.013-1.45-0.013c-0.67,0-1.243,0.004-1.714,0.013
		C128.377,183.867,127.956,183.88,127.586,183.898L127.586,183.898L127.586,183.898z M138.323,180.321
		c-0.426,0.195-0.749,0.421-0.969,0.679c-0.22,0.259-0.329,0.541-0.329,0.846c0,0.452,0.2,0.838,0.595,1.156
		c0.396,0.318,0.868,0.476,1.425,0.476c0.5,0,0.923-0.127,1.269-0.382c0.348-0.256,0.521-0.561,0.521-0.916
		c0-0.348-0.197-0.668-0.587-0.958C139.857,180.93,139.215,180.63,138.323,180.321L138.323,180.321L138.323,180.321z
		 M139.398,179.087c0.329-0.2,0.576-0.417,0.739-0.651c0.163-0.234,0.246-0.487,0.246-0.759c0-0.355-0.146-0.651-0.442-0.884
		c-0.296-0.234-0.673-0.35-1.125-0.35c-0.412,0-0.758,0.096-1.04,0.289c-0.282,0.191-0.424,0.43-0.424,0.714
		c0,0.305,0.154,0.583,0.464,0.833C138.126,178.527,138.654,178.797,139.398,179.087L139.398,179.087L139.398,179.087z
		 M137.366,179.95c-0.555-0.309-0.969-0.627-1.239-0.952c-0.27-0.328-0.405-0.673-0.405-1.036c0-0.589,0.308-1.07,0.924-1.442
		c0.613-0.372,1.423-0.557,2.427-0.557c0.864,0,1.563,0.154,2.098,0.465c0.533,0.311,0.801,0.717,0.801,1.216
		c0,0.334-0.14,0.638-0.417,0.91c-0.277,0.274-0.744,0.557-1.402,0.851c0.774,0.277,1.34,0.598,1.7,0.962
		c0.363,0.363,0.542,0.798,0.542,1.302c0,0.713-0.326,1.295-0.982,1.74c-0.653,0.445-1.516,0.667-2.584,0.667
		c-1.101,0-1.982-0.195-2.643-0.585c-0.66-0.39-0.992-0.901-0.992-1.532c0-0.441,0.178-0.828,0.535-1.157
		C136.085,180.476,136.629,180.191,137.366,179.95L137.366,179.95L137.366,179.95z M143.647,183.403l0.722-0.556
		c0.235,0.166,0.471,0.289,0.71,0.37c0.238,0.081,0.488,0.122,0.753,0.122c0.813,0,1.487-0.294,2.023-0.885
		c0.533-0.589,0.8-1.346,0.8-2.273v-0.033c-0.339,0.426-0.715,0.747-1.134,0.958c-0.419,0.211-0.879,0.318-1.376,0.318
		c-0.791,0-1.424-0.217-1.895-0.651c-0.471-0.435-0.708-1.022-0.708-1.762c0-0.91,0.322-1.64,0.964-2.194
		c0.644-0.553,1.487-0.829,2.534-0.829c1.146,0,2.034,0.31,2.664,0.932c0.627,0.622,0.943,1.497,0.943,2.63
		c0,0.638-0.114,1.235-0.344,1.789c-0.23,0.552-0.559,1.034-0.987,1.444c-0.46,0.426-0.976,0.75-1.549,0.967
		c-0.572,0.217-1.195,0.326-1.866,0.326c-0.457,0-0.871-0.056-1.24-0.164C144.289,183.803,143.952,183.634,143.647,183.403
		L143.647,183.403L143.647,183.403z M147.123,180.38c0.405,0,0.737-0.136,0.988-0.406c0.251-0.272,0.379-0.627,0.379-1.065
		c0-0.708-0.149-1.269-0.448-1.685c-0.298-0.414-0.701-0.622-1.206-0.622c-0.393-0.001-0.697,0.151-0.912,0.452
		c-0.215,0.301-0.322,0.73-0.322,1.282c0,0.635,0.137,1.136,0.41,1.499C146.285,180.198,146.654,180.38,147.123,180.38
		L147.123,180.38L147.123,180.38z M155.508,179.674c-0.415,0-0.749,0.14-0.995,0.417c-0.248,0.278-0.372,0.657-0.372,1.135
		c0,0.664,0.152,1.202,0.452,1.613c0.301,0.412,0.684,0.618,1.151,0.618c0.407,0,0.723-0.145,0.947-0.433
		c0.225-0.289,0.336-0.695,0.336-1.221c0-0.679-0.133-1.203-0.397-1.573C156.363,179.859,155.991,179.674,155.508,179.674
		L155.508,179.674L155.508,179.674z M158.984,176.662l-0.722,0.549c-0.23-0.163-0.467-0.283-0.711-0.364
		c-0.242-0.081-0.493-0.122-0.753-0.122c-0.812,0-1.489,0.294-2.025,0.885c-0.537,0.588-0.805,1.346-0.805,2.273l0,0.033
		c0.343-0.43,0.722-0.754,1.141-0.969c0.419-0.216,0.876-0.323,1.376-0.323c0.786,0,1.418,0.219,1.892,0.657
		c0.474,0.439,0.711,1.029,0.711,1.772c0,0.905-0.323,1.633-0.964,2.185c-0.645,0.551-1.487,0.828-2.534,0.828
		c-1.147,0-2.034-0.312-2.664-0.933c-0.628-0.622-0.943-1.499-0.943-2.635c0-0.639,0.114-1.232,0.341-1.78
		c0.225-0.549,0.557-1.028,0.993-1.442c0.457-0.426,0.973-0.748,1.547-0.964c0.573-0.215,1.196-0.324,1.866-0.324
		c0.458,0,0.872,0.055,1.239,0.164C158.336,176.263,158.674,176.432,158.984,176.662z"/>
	<path fill-rule="evenodd" clip-rule="evenodd" fill="#E60012" d="M142.11,76.494c30.704,0,55.747,25.043,55.747,55.747
		c0,20.975-11.69,39.306-28.885,48.818l-1.076-2.152c16.408-9.115,27.556-26.629,27.556-46.666
		c0-29.379-23.962-53.342-53.342-53.342c-29.38,0-53.342,23.962-53.342,53.342c0,20.129,11.25,37.713,27.781,46.792l-1.076,2.152
		c-17.319-9.476-29.11-27.876-29.11-48.944C86.364,101.536,111.406,76.494,142.11,76.494z"/>
	<path fill-rule="evenodd" clip-rule="evenodd" fill="#A40000" d="M254.93,187.686l2.013-0.014c0.059,1.749,0.462,3.073,1.203,3.973
		c0.741,0.905,1.794,1.356,3.153,1.356c1.107-0.001,1.994-0.281,2.672-0.84c0.673-0.559,1.011-1.286,1.011-2.182
		c0-0.751-0.219-1.37-0.663-1.858c-0.444-0.483-1.46-1.065-3.047-1.745c-2.379-1.009-3.999-1.989-4.868-2.941
		c-0.865-0.953-1.3-2.149-1.3-3.584c0-1.788,0.627-3.251,1.885-4.391c1.254-1.14,2.874-1.712,4.859-1.712
		c0.791,0,1.666,0.061,2.613,0.188c0.948,0.122,2.028,0.314,3.244,0.568l-0.014,0.084c-0.027,1.182-0.041,2.074-0.041,2.679
		c0,0.576,0.014,1.44,0.041,2.585l0.014,0.084h-1.624c-0.027-1.487-0.37-2.608-1.039-3.373c-0.664-0.764-1.629-1.149-2.888-1.149
		c-0.974,0-1.743,0.249-2.311,0.741c-0.566,0.497-0.851,1.164-0.851,2.008c0,0.75,0.219,1.36,0.664,1.824
		c0.444,0.469,1.478,1.041,3.102,1.717c0.225,0.102,0.554,0.24,0.993,0.413c1.707,0.698,2.86,1.323,3.459,1.872
		c0.622,0.596,1.085,1.238,1.386,1.937c0.297,0.694,0.449,1.497,0.449,2.402c0,1.979-0.668,3.565-2.004,4.752
		c-1.337,1.187-3.139,1.778-5.409,1.778c-1.254-0.001-2.443-0.122-3.573-0.371c-1.13-0.249-2.219-0.624-3.263-1.13
		c0.051-0.695,0.092-1.398,0.119-2.106c0.027-0.714,0.041-1.417,0.041-2.111c0-0.413-0.004-0.718-0.009-0.92
		C254.944,188.02,254.94,187.842,254.93,187.686L254.93,187.686L254.93,187.686z M273.012,194.461v-1.238h0.161
		c0.901,0,1.496-0.146,1.789-0.441c0.288-0.291,0.435-0.943,0.435-1.952v-13.647c0-0.675-0.156-1.159-0.467-1.44
		c-0.315-0.286-0.837-0.426-1.569-0.426l-0.348-0.001v-1.182c0.824,0.085,1.629,0.141,2.425,0.179
		c0.797,0.037,1.588,0.056,2.375,0.056c0.773,0,1.565-0.019,2.371-0.056c0.805-0.038,1.611-0.094,2.425-0.178v1.154
		c-0.883,0-1.496,0.127-1.831,0.385c-0.334,0.258-0.503,0.727-0.503,1.417v13.74c0,0.999,0.146,1.647,0.434,1.947
		c0.293,0.296,0.869,0.446,1.739,0.446h0.161v1.209c-0.769-0.065-1.551-0.112-2.348-0.145c-0.792-0.033-1.61-0.047-2.448-0.047
		c-0.69-0.001-1.427,0.019-2.214,0.056C274.809,194.334,273.95,194.386,273.012,194.461L273.012,194.461L273.012,194.461z
		 M304.073,174.711c-0.045,0.741-0.078,1.431-0.1,2.069c-0.023,0.638-0.037,1.248-0.037,1.835c0,0.286,0.004,0.586,0.014,0.91
		c0.009,0.319,0.023,0.77,0.041,1.347l-1.835-0.001c-0.169-1.853-0.636-3.236-1.4-4.151c-0.764-0.914-1.834-1.374-3.212-1.374
		c-1.935,0-3.445,0.737-4.53,2.205c-1.079,1.473-1.619,3.528-1.619,6.164c0,2.693,0.59,4.869,1.771,6.52
		c1.176,1.656,2.708,2.482,4.594,2.482c1.066,0,2.055-0.286,2.97-0.858c0.915-0.573,1.848-1.496,2.796-2.767l1.326,0.863
		c-1.088,1.712-2.314,2.96-3.678,3.739c-1.363,0.778-2.993,1.168-4.886,1.168c-3.093-0.001-5.537-0.943-7.33-2.833
		c-1.798-1.887-2.695-4.443-2.695-7.665c0-3.199,1.002-5.765,3.002-7.703c2-1.938,4.648-2.908,7.948-2.908
		c1.144,0,3.198,0.277,6.163,0.826C303.68,174.631,303.909,174.674,304.073,174.711L304.073,174.711L304.073,174.711z
		 M307.866,194.461v-1.238h0.174c0.893,0,1.487-0.146,1.78-0.441c0.297-0.291,0.443-0.943,0.443-1.952v-13.647
		c0-0.675-0.155-1.159-0.466-1.44c-0.316-0.286-0.837-0.426-1.57-0.426l-0.361-0.001v-1.182c0.59,0.085,1.244,0.141,1.962,0.179
		c0.719,0.037,1.661,0.056,2.824,0.056c1.011,0,1.931-0.019,2.759-0.061c0.833-0.042,1.483-0.098,1.958-0.173l0,1.154
		c-0.892,0-1.505,0.127-1.839,0.385c-0.33,0.258-0.495,0.727-0.495,1.417l0,5.718h8.487v-5.718c0-0.643-0.174-1.102-0.517-1.384
		c-0.342-0.277-0.924-0.417-1.734-0.417l-0.138-0.001v-1.155c0.673,0.085,1.396,0.141,2.174,0.179
		c0.777,0.037,1.642,0.056,2.598,0.056c0.948,0,1.79-0.019,2.526-0.056c0.737-0.038,1.413-0.094,2.031-0.178l0,1.181h-0.257
		c-0.696,0-1.194,0.142-1.492,0.427c-0.297,0.282-0.448,0.765-0.448,1.441v13.646c0,0.909,0.16,1.534,0.475,1.877
		c0.317,0.341,0.893,0.516,1.721,0.516l0,1.238c-0.901-0.075-1.73-0.126-2.485-0.164c-0.755-0.038-1.455-0.056-2.1-0.056
		c-0.356-0.001-0.947,0.013-1.775,0.047c-0.828,0.033-1.798,0.08-2.914,0.145v-1.21h0.16c0.87,0,1.447-0.151,1.738-0.446
		c0.289-0.301,0.435-0.948,0.435-1.947v-6.469h-8.487v6.469c0,0.999,0.146,1.647,0.435,1.947c0.293,0.296,0.869,0.446,1.739,0.446
		h0.16v1.196c-1.043-0.056-1.971-0.098-2.782-0.131c-0.809-0.033-1.454-0.047-1.935-0.047c-0.723-0.001-1.478,0.019-2.265,0.056
		C309.6,194.334,308.758,194.386,307.866,194.461L307.866,194.461L307.866,194.461z M335.931,177.183
		c0-0.666-0.16-1.144-0.476-1.436c-0.316-0.286-0.842-0.431-1.574-0.431l-0.229-0.001v-1.168c0.938,0.085,1.807,0.146,2.599,0.188
		c0.797,0.042,1.524,0.062,2.188,0.062c0.608-0.001,1.299-0.019,2.082-0.062c0.782-0.042,1.661-0.103,2.636-0.188l0,1.167
		c-0.902,0-1.519,0.127-1.845,0.381c-0.325,0.249-0.489,0.713-0.489,1.393v9.236c0,1.426,0.064,2.458,0.192,3.082
		c0.132,0.628,0.348,1.15,0.655,1.563c0.385,0.501,0.902,0.886,1.556,1.154c0.649,0.267,1.413,0.399,2.292,0.399
		c1.766-0.001,3.034-0.473,3.798-1.421c0.764-0.948,1.148-2.561,1.148-4.832v-0.136l-0.041-8.566c0-0.905-0.151-1.496-0.449-1.777
		c-0.297-0.277-0.924-0.437-1.872-0.474l-0.013-1.169c0.635,0.065,1.189,0.113,1.66,0.146c0.475,0.033,0.924,0.047,1.341,0.047
		c0.421-0.001,0.869-0.014,1.349-0.047c0.476-0.033,1.007-0.08,1.588-0.146l0,1.167c-0.723,0.038-1.189,0.165-1.396,0.385
		c-0.206,0.221-0.316,0.816-0.334,1.788l-0.174,9.4c-0.054,2.81-0.714,4.846-1.976,6.094c-1.268,1.252-3.295,1.877-6.095,1.877
		c-2.654-0.001-4.672-0.563-6.049-1.684c-1.382-1.121-2.073-2.767-2.073-4.939L335.931,177.183L335.931,177.183z M364.472,179.397
		l-2.905,7.01h5.294L364.472,179.397L364.472,179.397z M359.476,191.477c-0.055,0.136-0.096,0.277-0.124,0.418
		c-0.023,0.145-0.037,0.281-0.037,0.422c0,0.502,0.714,0.802,2.141,0.892l0.083,0.014v1.209c-0.627-0.055-1.217-0.093-1.766-0.121
		c-0.549-0.029-1.053-0.042-1.505-0.042c-0.307,0-0.668,0.009-1.089,0.033c-0.416,0.024-1.089,0.075-2.009,0.16v-1.238
		c0.645-0.109,1.157-0.334,1.547-0.667c0.389-0.333,0.773-0.91,1.148-1.727l7.348-16.696h1.982l6.501,17.743
		c0.179,0.469,0.439,0.802,0.783,1.009c0.343,0.206,0.833,0.319,1.469,0.338v1.209c-0.892-0.055-1.716-0.093-2.471-0.121
		c-0.759-0.029-1.45-0.042-2.086-0.042c-0.668,0-1.428,0.014-2.275,0.046c-0.841,0.033-1.748,0.08-2.712,0.146l-0.014-1.238
		c1.066-0.038,1.743-0.122,2.041-0.254c0.293-0.137,0.439-0.37,0.439-0.708c0-0.075-0.014-0.174-0.046-0.295
		c-0.031-0.122-0.068-0.258-0.115-0.404l-1.354-3.795h-6.365L359.476,191.477L359.476,191.477z M395.37,187.147v-9.823
		c0-0.798-0.179-1.337-0.536-1.618c-0.357-0.277-1.08-0.417-2.16-0.417l0-1.155c0.489,0.038,1.006,0.067,1.546,0.09
		c0.541,0.023,1.116,0.033,1.725,0.033c0.6,0,1.158-0.01,1.675-0.024c0.517-0.02,1.006-0.052,1.473-0.098v1.181h-0.187
		c-0.66,0-1.131,0.151-1.414,0.456c-0.279,0.3-0.421,0.812-0.421,1.525v17.164h-1.835l-12.857-16.382v12.751
		c0,1.036,0.16,1.694,0.48,1.975c0.325,0.277,1.052,0.418,2.187,0.418v1.209c-0.617-0.055-1.226-0.093-1.83-0.121
		c-0.604-0.029-1.194-0.042-1.776-0.042c-0.516,0-1.056,0.014-1.61,0.046c-0.554,0.033-1.121,0.08-1.702,0.146v-1.238
		c1.066,0,1.752-0.141,2.059-0.418c0.307-0.282,0.462-0.938,0.462-1.975v-13.533c0-0.77-0.151-1.276-0.458-1.525
		c-0.302-0.249-0.92-0.38-1.849-0.399l0.001-1.239c0.947,0.085,1.67,0.137,2.173,0.165c0.5,0.028,0.929,0.042,1.286,0.042
		c0.438-0.001,0.937-0.014,1.5-0.042c0.563-0.029,1.189-0.07,1.876-0.136L395.37,187.147L395.37,187.147z M418.173,177.183
		c0-0.666-0.16-1.144-0.476-1.436c-0.316-0.286-0.842-0.431-1.574-0.431l-0.229-0.001v-1.168c0.938,0.085,1.807,0.146,2.599,0.188
		c0.796,0.042,1.524,0.062,2.187,0.062c0.609-0.001,1.3-0.019,2.082-0.062c0.783-0.042,1.661-0.103,2.636-0.188l0,1.167
		c-0.902,0-1.52,0.127-1.845,0.381c-0.324,0.249-0.489,0.713-0.489,1.393v9.236c0,1.426,0.064,2.458,0.192,3.082
		c0.133,0.628,0.348,1.15,0.654,1.563c0.385,0.501,0.901,0.886,1.555,1.154c0.65,0.267,1.414,0.399,2.293,0.399
		c1.766-0.001,3.033-0.473,3.797-1.421c0.764-0.948,1.148-2.561,1.148-4.832l0-0.136l-0.041-8.566c0-0.905-0.151-1.496-0.448-1.777
		c-0.297-0.277-0.925-0.437-1.871-0.474l-0.013-1.169c0.635,0.065,1.189,0.113,1.66,0.146c0.476,0.033,0.924,0.047,1.341,0.047
		c0.421-0.001,0.869-0.014,1.349-0.047c0.477-0.033,1.007-0.08,1.588-0.146v1.167c-0.723,0.038-1.19,0.165-1.396,0.385
		c-0.206,0.221-0.316,0.816-0.334,1.788l-0.174,9.4c-0.055,2.81-0.714,4.846-1.976,6.094c-1.268,1.252-3.295,1.877-6.095,1.877
		c-2.653-0.001-4.672-0.563-6.048-1.684c-1.382-1.121-2.073-2.767-2.073-4.939V177.183L418.173,177.183z M456.36,187.147v-9.823
		c0-0.798-0.178-1.337-0.536-1.618c-0.357-0.277-1.079-0.417-2.159-0.417v-1.155c0.489,0.038,1.006,0.067,1.546,0.09
		c0.54,0.023,1.116,0.033,1.725,0.033c0.6,0,1.158-0.01,1.675-0.024c0.517-0.02,1.007-0.052,1.473-0.098l0,1.181h-0.187
		c-0.659,0-1.13,0.151-1.414,0.456c-0.279,0.3-0.421,0.812-0.421,1.525v17.164h-1.835l-12.857-16.382v12.751
		c0,1.036,0.161,1.694,0.481,1.975c0.325,0.277,1.052,0.418,2.187,0.418v1.209c-0.617-0.055-1.227-0.093-1.83-0.121
		c-0.604-0.029-1.194-0.042-1.776-0.042c-0.517,0-1.056,0.014-1.61,0.046c-0.554,0.033-1.121,0.08-1.702,0.146l0-1.238
		c1.066,0,1.752-0.141,2.059-0.418c0.306-0.282,0.461-0.938,0.461-1.975l0-13.533c0-0.77-0.151-1.276-0.458-1.525
		c-0.302-0.249-0.92-0.38-1.848-0.399v-1.239c0.947,0.085,1.67,0.137,2.173,0.165c0.499,0.028,0.929,0.042,1.286,0.042
		c0.439-0.001,0.938-0.014,1.501-0.042c0.562-0.029,1.19-0.07,1.876-0.136L456.36,187.147L456.36,187.147z M463.341,194.461v-1.238
		h0.16c0.901,0,1.496-0.146,1.789-0.441c0.289-0.291,0.435-0.943,0.435-1.952l0-13.647c0-0.675-0.156-1.159-0.467-1.44
		c-0.316-0.286-0.838-0.426-1.57-0.426l-0.348-0.001v-1.182c0.824,0.085,1.629,0.141,2.425,0.179
		c0.796,0.037,1.588,0.056,2.374,0.056c0.773,0,1.565-0.019,2.37-0.056c0.806-0.038,1.611-0.094,2.425-0.178l0,1.154
		c-0.882,0-1.496,0.127-1.831,0.385c-0.334,0.258-0.503,0.727-0.503,1.417v13.74c0,0.999,0.146,1.647,0.435,1.947
		c0.293,0.296,0.869,0.446,1.739,0.446h0.16v1.209c-0.768-0.065-1.551-0.112-2.347-0.145c-0.791-0.033-1.61-0.047-2.448-0.047
		c-0.691-0.001-1.427,0.019-2.214,0.056C465.139,194.334,464.278,194.386,463.341,194.461L463.341,194.461L463.341,194.461z
		 M486.468,194.653h-2.223l-6.315-17.592c-0.215-0.577-0.512-1.013-0.896-1.304c-0.384-0.296-0.847-0.441-1.382-0.441l-0.297-0.001
		v-1.154c0.892,0.066,1.73,0.108,2.512,0.136c0.783,0.028,1.51,0.042,2.178,0.042c0.467-0.001,1.039-0.014,1.716-0.042
		c0.682-0.029,1.73-0.08,3.152-0.164v1.181h-0.2c-0.696,0-1.195,0.085-1.497,0.254c-0.298,0.169-0.448,0.441-0.448,0.821
		c0,0.098,0.009,0.197,0.027,0.3c0.019,0.098,0.046,0.207,0.082,0.315l4.247,12.248l4.787-12.192c0.091-0.22,0.16-0.427,0.214-0.619
		c0.055-0.193,0.082-0.328,0.082-0.413c0-0.244-0.16-0.427-0.471-0.54c-0.311-0.118-0.805-0.173-1.473-0.173l-0.283-0.001v-1.154
		c0.42,0.047,0.86,0.075,1.322,0.094c0.458,0.018,0.942,0.028,1.455,0.028c0.617,0,1.162-0.01,1.643-0.033
		c0.476-0.024,0.924-0.061,1.345-0.117l0.014,1.181c-0.439,0-0.788,0.109-1.053,0.329c-0.265,0.22-0.54,0.675-0.824,1.36
		L486.468,194.653L486.468,194.653z M498.107,194.461v-1.238h0.389c0.787,0,1.345-0.141,1.679-0.427
		c0.33-0.282,0.494-0.761,0.494-1.426l0-14.13c0-0.681-0.165-1.159-0.495-1.44c-0.333-0.286-0.892-0.427-1.679-0.427l-0.389-0.001
		v-1.238c0.705,0.066,1.487,0.109,2.347,0.137c0.857,0.028,2.183,0.042,3.968,0.042l2.992-0.001c1.382,0,2.534-0.014,3.454-0.042
		c0.924-0.029,1.748-0.066,2.48-0.122c0.018,0.704,0.056,1.464,0.101,2.275c0.05,0.807,0.115,1.707,0.197,2.698l-1.341-0.001
		c-0.091-1.29-0.481-2.2-1.167-2.73c-0.686-0.525-1.843-0.788-3.473-0.788c-0.965-0.001-1.574,0.07-1.834,0.206
		c-0.261,0.136-0.389,0.408-0.389,0.812l0,6.778h2.64c0.833,0,1.455-0.234,1.872-0.703c0.412-0.465,0.622-1.173,0.622-2.116
		l1.071,0.014c-0.027,0.549-0.046,1.112-0.06,1.684c-0.013,0.572-0.022,1.154-0.022,1.741c0,0.576,0.008,1.154,0.027,1.736
		c0.014,0.581,0.032,1.168,0.055,1.755l-1.126-0.001c-0.019-1.056-0.201-1.787-0.55-2.2c-0.348-0.413-0.961-0.619-1.834-0.619
		l-2.695,0v6.928c0,0.394,0.119,0.68,0.357,0.859c0.234,0.178,0.613,0.267,1.129,0.267c2.361,0,4.013-0.299,4.96-0.905
		c0.947-0.606,1.629-1.693,2.041-3.26l1.231-0.001c-0.234,1.037-0.444,2.041-0.632,3.017c-0.188,0.976-0.362,1.933-0.522,2.867
		c-1.125-0.076-2.338-0.127-3.637-0.164c-1.305-0.038-2.746-0.056-4.324-0.056c-1.592-0.001-3.034,0.019-4.325,0.056
		C500.427,194.334,499.224,194.386,498.107,194.461L498.107,194.461L498.107,194.461z M518.289,194.461v-1.238
		c0.869,0,1.446-0.151,1.739-0.446c0.288-0.301,0.434-0.948,0.434-1.947l0-13.642c0-0.67-0.161-1.149-0.476-1.44
		c-0.315-0.286-0.846-0.431-1.588-0.431l-0.215-0.001v-1.154c0.636,0.066,1.267,0.108,1.903,0.136
		c0.636,0.028,1.277,0.042,1.931,0.042c0.778-0.001,1.812-0.028,3.102-0.089c1.29-0.061,2.187-0.089,2.69-0.089
		c2.402-0.001,4.2,0.389,5.385,1.168c1.19,0.778,1.785,1.947,1.785,3.504c0,1.299-0.407,2.43-1.221,3.392
		c-0.81,0.961-2.014,1.735-3.606,2.322c0.815,0.333,1.634,1.009,2.462,2.031c0.824,1.018,1.743,2.505,2.754,4.457
		c0.06,0.122,0.156,0.31,0.28,0.563c0.681,1.364,1.326,2.05,1.944,2.05h0.16v1.004c-1.152-0.118-2.379-0.197-3.688-0.234
		c-0.229-0.01-0.384-0.014-0.453-0.014c-0.805-0.052-1.391-0.234-1.757-0.544c-0.366-0.305-0.773-1.009-1.217-2.107
		c-0.206-0.526-0.486-1.248-0.833-2.172c-0.86-2.299-1.551-3.621-2.077-3.959c-0.187-0.118-0.421-0.211-0.705-0.272
		c-0.283-0.066-0.604-0.098-0.97-0.098c-0.082-0.001-0.183,0.005-0.302,0.014c-0.123,0.009-0.302,0.029-0.544,0.057l0,5.507
		c0,0.962,0.137,1.6,0.407,1.905c0.274,0.305,0.805,0.469,1.591,0.489l0,1.209c-1.039-0.065-1.94-0.112-2.713-0.145
		c-0.773-0.033-1.323-0.047-1.643-0.047c-0.718-0.001-1.454,0.019-2.214,0.056C519.877,194.334,519.094,194.386,518.289,194.461
		L518.289,194.461L518.289,194.461z M525.207,183.821h1.18c1.422,0,2.471-0.332,3.148-1.003c0.682-0.667,1.021-1.693,1.021-3.077
		c0-1.464-0.348-2.524-1.048-3.181c-0.696-0.652-1.817-0.98-3.363-0.98c-0.252,0-0.444,0-0.576,0.005
		c-0.133,0.005-0.257,0.014-0.362,0.023L525.207,183.821L525.207,183.821z M541.476,187.686l2.013-0.014
		c0.06,1.749,0.463,3.073,1.204,3.973c0.741,0.905,1.793,1.356,3.152,1.356c1.107-0.001,1.995-0.281,2.671-0.84
		c0.673-0.559,1.012-1.286,1.012-2.182c0-0.751-0.219-1.37-0.664-1.858c-0.444-0.483-1.46-1.065-3.047-1.745
		c-2.38-1.009-4-1.989-4.869-2.941c-0.865-0.953-1.299-2.149-1.299-3.584c0-1.788,0.627-3.251,1.884-4.391
		c1.254-1.14,2.874-1.712,4.86-1.712c0.792,0,1.665,0.061,2.613,0.188c0.947,0.122,2.027,0.314,3.244,0.568l-0.013,0.084
		c-0.028,1.182-0.041,2.074-0.041,2.679c0,0.576,0.013,1.44,0.041,2.585l0.014,0.084h-1.624c-0.028-1.487-0.371-2.608-1.039-3.373
		c-0.664-0.764-1.629-1.149-2.887-1.149c-0.974,0-1.743,0.249-2.31,0.741c-0.567,0.497-0.851,1.164-0.851,2.008
		c0,0.75,0.219,1.36,0.663,1.824c0.444,0.469,1.478,1.041,3.102,1.717c0.224,0.102,0.554,0.24,0.993,0.413
		c1.707,0.698,2.86,1.323,3.459,1.872c0.623,0.596,1.084,1.238,1.387,1.937c0.298,0.694,0.448,1.497,0.448,2.402
		c0,1.979-0.668,3.565-2.004,4.752c-1.336,1.187-3.139,1.778-5.409,1.778c-1.253-0.001-2.443-0.122-3.573-0.371
		c-1.13-0.249-2.219-0.624-3.262-1.13c0.05-0.695,0.091-1.398,0.119-2.106c0.027-0.714,0.042-1.417,0.042-2.111
		c0-0.413-0.005-0.718-0.009-0.92C541.49,188.02,541.486,187.842,541.476,187.686L541.476,187.686L541.476,187.686z
		 M559.558,194.461v-1.238h0.16c0.901,0,1.496-0.146,1.789-0.441c0.288-0.291,0.435-0.943,0.435-1.952l0.001-13.647
		c0-0.675-0.156-1.159-0.468-1.44c-0.315-0.286-0.837-0.426-1.57-0.426l-0.347-0.001v-1.182c0.824,0.085,1.629,0.141,2.425,0.179
		c0.796,0.037,1.588,0.056,2.375,0.056c0.773,0,1.564-0.019,2.37-0.056c0.805-0.038,1.611-0.094,2.425-0.178v1.154
		c-0.883,0-1.496,0.127-1.83,0.385c-0.334,0.258-0.503,0.727-0.503,1.417v13.74c0,0.999,0.146,1.647,0.434,1.947
		c0.293,0.296,0.87,0.446,1.739,0.446h0.16v1.209c-0.769-0.065-1.551-0.112-2.348-0.145c-0.791-0.033-1.61-0.047-2.447-0.047
		c-0.691-0.001-1.428,0.019-2.215,0.056C561.356,194.334,560.496,194.386,559.558,194.461L559.558,194.461L559.558,194.461z
		 M575.607,194.461v-1.238h0.417c0.814,0,1.39-0.141,1.734-0.427c0.344-0.282,0.518-0.761,0.518-1.426v-15.655h-0.549
		c-1.35,0-2.375,0.273-3.075,0.812c-0.704,0.539-1.172,1.417-1.4,2.623l-0.993-0.001l0.228-5.015
		c0.366,0.038,0.796,0.061,1.29,0.071c0.5,0.008,1.354,0.014,2.567,0.014l4.37,0h4.355c1.235,0,2.1-0.009,2.599-0.018
		c0.499-0.01,0.933-0.033,1.299-0.066l0.202,5.014h-0.993c-0.229-1.206-0.695-2.083-1.4-2.622c-0.699-0.54-1.725-0.812-3.075-0.812
		l-0.549-0.001v15.542c0,0.76,0.16,1.281,0.485,1.553c0.321,0.277,0.938,0.414,1.849,0.414h0.201v1.238
		c-1.08-0.075-2.036-0.126-2.869-0.164c-0.833-0.038-1.57-0.056-2.211-0.056c-0.786-0.001-1.592,0.019-2.416,0.056
		C577.373,194.334,576.508,194.386,575.607,194.461L575.607,194.461L575.607,194.461z M603.553,185.538v5.292
		c0,0.999,0.156,1.647,0.462,1.947c0.312,0.296,0.943,0.446,1.899,0.446h0.577v1.209c-1.181-0.065-2.214-0.112-3.102-0.145
		c-0.892-0.033-1.56-0.047-2.004-0.047c-0.728-0.001-1.533,0.019-2.421,0.056c-0.892,0.037-1.894,0.089-3.01,0.164l0-1.238h0.604
		c0.965,0,1.596-0.151,1.899-0.446c0.307-0.301,0.458-0.948,0.458-1.947l0-5.315l-5.239-8.674l-0.027-0.042
		c-0.6-0.99-1.263-1.482-1.986-1.482l-0.27-0.001v-1.154c0.769,0.066,1.551,0.108,2.347,0.136c0.796,0.028,1.606,0.042,2.426,0.042
		c0.946-0.001,1.825-0.014,2.63-0.047c0.801-0.033,1.551-0.08,2.237-0.146v1.167c-0.859,0-1.451,0.057-1.784,0.165
		c-0.329,0.112-0.495,0.296-0.495,0.549c0,0.065,0.014,0.145,0.046,0.244c0.032,0.094,0.078,0.197,0.142,0.305l4.008,7.242
		l4.013-7.351c0.051-0.108,0.092-0.206,0.119-0.286c0.027-0.085,0.041-0.159,0.041-0.22c0-0.221-0.174-0.385-0.517-0.488
		c-0.343-0.108-0.902-0.159-1.67-0.159v-1.155c0.659,0.066,1.253,0.108,1.784,0.136c0.527,0.028,0.989,0.042,1.391,0.042
		c0.513-0.001,1.002-0.014,1.482-0.047c0.476-0.033,0.942-0.08,1.4-0.146v1.167c-0.535,0.019-0.938,0.099-1.212,0.24
		c-0.274,0.145-0.544,0.441-0.81,0.887L603.553,185.538z"/>
	<path fill-rule="evenodd" clip-rule="evenodd" fill="#A40000" d="M284.211,114.243c-1.158-0.519-0.98-3.766-3.051-5.084
		c-2.071-1.318-3.653-1.394-5.122-1.281c-1.469,0.112-4.52,2.712-4.708,7.947c-0.188,5.235,5.086,19.774,7.01,22.09
		c1.925,2.316,8.404,1.099,7.501-1.296c-0.904-2.396-2.631-8.836-1.021-11.938c1.61-3.103,4.791-8.482,14.137-13.823
		c9.346-5.341,16.405-5.097,18.147-4.419c1.743,0.678,1.115,3.573,0.791,4.332c-0.323,0.758-6.601,8.234-6.75,8.827
		c-0.15,0.592-2.303,1.785-2.409-0.455c-0.107-2.24-0.55-4.477-2.671-5.341c-2.12-0.864-4.319-1.413-5.223,1.532
		c-0.903,2.945,0.589,4.987,1.689,5.93c1.099,0.942,2.985,2.749,1.453,2.866c-1.531,0.118-6.322,3.26-6.322,3.26
		s-3.22-0.471-3.731,2.238c-0.51,2.709,1.375,5.851,2.75,5.026c1.374-0.824,5.498-3.298,8.089-4.319
		c2.592-1.022,6.99-2.592,8.718-1.492c1.728,1.1,1.846,2.631,4.948,4.241c3.102,1.61,8.875,1.885,11.349,0.667
		c2.474-1.218,15.983-7.186,18.771-6.99c2.788,0.196,6.087,3.023,7.226-2.199c1.139-5.223-5.381-19.204-14.06-22.542
		c-8.678-3.338-18.614-4.319-30.042-2.002c-11.427,2.317-16.69,4.674-20.891,8.797C286.587,112.938,285.369,114.761,284.211,114.243
		L284.211,114.243L284.211,114.243z M313.885,123.704c0,0-0.765-0.486-2.018-0.208c-1.252,0.278,7.339-5.113,10.469-6.991
		c3.131-1.879,1.774-4.139,0.243-6.296c-1.53-2.156-1.53-2.156-2.435-3.269c3.606-0.579,6.378-0.809,10.551-0.431
		c5.364,0.485,11.871,2.214,15.222,6.726c1.938,2.61-7.965,6.435-10.504,7.721c-2.538,1.287-10.399,5.53-12.069,6.296
		c-1.669,0.765-2.261-1.009-4.139-2.956C317.328,122.347,313.885,123.704,313.885,123.704z"/>
	<path fill-rule="evenodd" clip-rule="evenodd" fill="#A40000" d="M393.54,96.821c-2.497,0.249-4.027,1.269-3.517,5.348
		c0.51,4.08,2.968,4.367,2.21,11.049c-0.759,6.682-2.34,20.201-2.34,22.411c0,2.21-1.752,5.531-2.341,6.943
		c-0.588,1.411-1.412,6.041,1.988,6.721c3.399,0.68,3.556-3.674,4.027-5.688c0.471-2.013,2.707-19.312,2.588-22.124
		c-0.117-2.811,0.262-9.467,0.863-11.794s1.451-4.367,0.418-7.191C396.403,99.671,396.037,96.573,393.54,96.821L393.54,96.821
		L393.54,96.821z M409.598,99.827c-1.073-0.078-2.838-0.26-3.779,1.557c-0.941,1.817,0.118,5.021,0.785,6.956
		c0.668,1.935,1.268,4.027,1.02,5.949c-0.248,1.922-0.523,14.514,0.628,15.729c1.151,1.216,3.347-0.078,4.523-2.902
		c1.176-2.825,2.053-6.695,1.321-8.474c-0.732-1.778-0.798-3.831,0.248-6.341c1.046-2.511,0.431-5.897-0.38-8.813
		C413.153,100.573,410.669,99.907,409.598,99.827L409.598,99.827L409.598,99.827z M429.877,78.999
		c-1.22-0.326-3.845-0.497-4.838,0.562c-0.993,1.058-1.373,3.295-0.275,5.962c1.099,2.667,1.412,5.008,1.138,6.55
		c-0.274,1.543,0.21,18.502,0.21,22.922c0,4.42-0.562,12.84-0.327,18.462c0.236,5.623-0.057,15.68,2.105,18.371
		c2.162,2.69,5.3-1.25,4.525-4.126c-0.775-2.876-1.06-1.981-1.806-7.263c-0.745-5.283-0.981-33.002-0.825-35.147
		c0.157-2.144,0.755-10.162,1.736-12.515c0.98-2.354,4.161-4.731,3.664-7.516C435.476,82.804,431.096,79.324,429.877,78.999z"/>
	<path fill-rule="evenodd" clip-rule="evenodd" fill="#A40000" d="M496.32,129.899c2.063,3.574,8.904,14.327,14.978,12.12
		c6.074-2.208,3.511-9.085,1.163-10.77c-2.348-1.685-13.915-6.822-13.915-6.822C493.674,122.297,495.055,127.707,496.32,129.899
		L496.32,129.899L496.32,129.899z M490.54,91.954c0.708-0.499-0.802-5.593-0.608-8.095c0.194-2.503,2.25-4.156,3.906-3.773
		c1.656,0.382,4.136,4.304,3.891,6.271c-0.245,1.967-1.267,4.278-1.838,5.088c-0.571,0.81-0.986,1.552-1.317,3.743
		c-0.179,1.183-0.656,3.039-1.101,4.926c1.894-0.558,3.68-1.121,4.272-1.492c1.316-0.823,3.569-1.545,5.511-3.125
		c1.943-1.58,4.125,0.095,6.331,1.281c2.205,1.185,0.24,3.256-1.881,4.434c-2.12,1.178-4.059,0.595-5.465,1.217
		c-1.271,0.563-7.142,3.16-10.052,4.804c-0.797,4.284-2.486,11.629-3.596,14.765c-1.405,3.967-6.255,9.459-8.918,12.683
		c-2.662,3.223-4.149,7.653-6.896,9.426c-2.746,1.773-3.293,0.66-3.67-1.032c-0.377-1.692-2.946-3.715-1.32-5.922
		c1.626-2.206,2.118-4.703,3.318-2.583c1.2,2.12,3.05,0.959,2.622,0.884c-0.429-0.074,5.326-6.446,7.143-9.48
		c1.818-3.035,3.899-10.09,4.818-11.797c0.213-0.397,0.552-1.785,0.953-3.686c-1.46,0.845-2.887,1.708-3.973,2.523
		c-2.344,1.758-2.769,2.426-6.914,0.658c-4.143-1.769-5.233-3.688-5.52-5.963c-0.286-2.275,0.965-3.789,2.259-4.122
		c1.294-0.332,4.793,0.521,7.133,0.926c2.341,0.404,7.184-2.218,8.389-2.752c0.09-0.04,0.215-0.088,0.367-0.14
		C489.324,96.707,490.208,92.188,490.54,91.954z"/>
	<path fill-rule="evenodd" clip-rule="evenodd" fill="#A40000" d="M554.516,87.041c0.075,0.692,0.953,2.308,1.725,3.052
		c0.772,0.743,2.164,2.183,2.077,2.994c-0.085,0.811-0.496,5.873-0.526,7.036c-0.029,1.162-0.573,4.509,0.151,5.406
		c0.724,0.895,1.877,3.099,1.877,3.099c0-0.001,1.831,0.573,2.26-0.801c0.429-1.373,1.65-0.991,1.65-0.991s2.545,0.964,1.849,1.583
		c-0.696,0.619-0.477,0.992-1.838,1.77c-1.361,0.778-12.485,6.929-12.485,6.929c0-0.001-3.667,1.003-4.675,1.203
		c-1.008,0.2-2.521-0.187-2.986,1.301c-0.465,1.488-0.088,3.584,1.095,4.47c0.518,0.387,3.139,1.357,5.363,0.387
		c2.859-1.247,5.576-4.724,7.718-6.472c3.809-3.108,7.183-5.037,10.352-6.489c3.169-1.453,10.047-4.639,13.344-5.055
		c3.297-0.417,3.982,1.155,3.425,2.066c-0.556,0.912-2.437,2.586-3.354,3.203c-0.917,0.618-0.572,1.541-0.572,1.541
		s0.898,0.024,3.924-0.829c3.026-0.854,7.335-0.825,7.752-1.774c0.417-0.949-1.261-7.472-5.175-7.617
		c-3.914-0.144-8.278,0.77-9.357,1.152c-1.079,0.382-2.145-0.431-0.867-1.831c1.277-1.4,3.094-2.991,3.983-5.832
		c0.889-2.841,2.179-3.517,1.251-4.767c-0.928-1.251-2.533-3.791-3.12-4.215c-0.587-0.424-0.033-1.81,2.084-2.827
		c2.117-1.017,4.467-3.161,3.17-4.767c-1.298-1.605-3.852-0.725-3.954-2.317c-0.102-1.591-1.168-2.404,0.055-2.861
		c1.223-0.458,2.521-0.771,2.036-1.523c-0.485-0.751-1.017-2.118-1.98-3.258c-0.963-1.142-3.285-1.387-3.552-0.151
		c-0.267,1.235-0.302,3.265-0.281,4.351c0.02,1.086-0.314,2.541,0.389,3.361c0.703,0.819,1.072,1.175,0.832,1.94
		c-0.239,0.765-0.143,1.994-1.721,2.82c-1.578,0.826-2.521,0.771-3.005,1.939c-0.485,1.168-0.466,4.173,0.046,4.453
		c0.513,0.281,2.097-0.183,1.632,2.07c-0.464,2.253-3.048,7.445-2.85,8.346c0.198,0.902,1.892,0.472,1.878,1.667
		c-0.014,1.195,0.641,3.32-0.178,4.023c-0.82,0.703-3.518,1.659-3.518,1.659s-2.992,0.744-2.206-1.769
		c0.786-2.514,1.326-6.543,1.456-7.342c0.131-0.799,0.834-1.898-0.327-2.022c-1.161-0.124,0.178-2.104-1.188-1.571
		c-1.366,0.531-2.371,1.058-2.077-0.649c0.294-1.708,2.427-7.758,2.94-11.316c0.513-3.559-0.729-4.187-1.829-4.891
		c-1.098-0.704-4.18,1.092-4.194,2.287c-0.014,1.195,1.686,3.047,1.863,4.782c0.178,1.735-0.049,7.063-0.001,7.677
		c0.047,0.613-0.259,4.278-0.487,5.007c-0.227,0.728-3.944,3.405-3.394,0.498c0.549-2.908,0.759-6.521,0.097-8.367
		c-0.662-1.847-3.994-4.488-4.937-4.543C555.214,84.209,554.441,86.349,554.516,87.041L554.516,87.041L554.516,87.041z
		 M562.719,119.829c-0.125-1.616,2.047-2.513,3.42-2.871c1.373-0.359,6.417-2.88,8.652-2.969c2.235-0.089,2.297,3.241,1.659,4.775
		c-0.637,1.534-1.831,3.841-2.621,4.855c-0.79,1.014,2.647,1.616,2.647,1.616c0.001,0,5.259-1.192,7.261-1.039
		c2.002,0.153,2.297,3.241,1.91,5.484c-0.387,2.243-5.969,1.443-7.306,1.183c-1.336-0.261-0.342,2.1-0.745,3.392
		c-0.403,1.292-0.27,3.383-1.384,7.449c-1.114,4.065-3.87,6.829-5.709,7.672c-1.84,0.842-5.115-1.285-5.905-2.793
		c-0.789-1.509-2.117-1.292-2.826-3.564c-0.708-2.27,3.123-0.915,4.756-0.089c1.634,0.826,4.344,0.728,5.762,0.226
		c1.418-0.503,2.415-5.708,2.568-7.709c0.153-2.002-1.255-3.546-1.973-3.77c-0.718-0.225-3.312,1.014-5.763,2.297
		c-2.451,1.282-3.994,2.691-6.032,3.158c-2.037,0.466-4.505-1.724-4.971-3.762c-0.466-2.038,5.43-2.242,6.615-2.502
		c1.185-0.26,8.213-3.579,8.213-3.579c0.506-1.618,1.349-6.097-1.452-6.444c-1.669-0.207-2.675,2.001-4.103,2.027
		C563.966,122.898,562.844,121.444,562.719,119.829z"/>
</g>
</svg>
